HIERARCHY
ROOT Hips
{
	OFFSET 0.000000 71.427986 0.000000
	CHANNELS 6 Xposition Yposition Zposition Xrotation Yrotation Zrotation
	JOINT Pelvis
	{
		OFFSET 0.000000 0.000000 0.000000
		CHANNELS 3 Xrotation Yrotation Zrotation
		JOINT LeftUpLeg
		{
			OFFSET 6.797100 -2.508499 -1.318700
			CHANNELS 3 Xrotation Yrotation Zrotation
			JOINT LeftLeg
			{
				OFFSET 0.069008 -29.241863 0.690200
				CHANNELS 3 Xrotation Yrotation Zrotation
				JOINT LeftFoot
				{
					OFFSET -0.069008 -29.568123 -0.266800
					CHANNELS 3 Xrotation Yrotation Zrotation
					JOINT LeftToeBase
					{
						OFFSET 3.145500 -8.631000 16.059900
						CHANNELS 3 Xrotation Yrotation Zrotation
						End Site
						{
							OFFSET 0.000000 18.501587 0.000000
						}
					}
				}
			}
			JOINT Left_ShortSleeve
			{
				OFFSET 0.265923 -10.480953 1.153800
				CHANNELS 3 Xrotation Yrotation Zrotation
				End Site
				{
					OFFSET 1.725763 19.823879 0.000000
				}
			}
		}
		JOINT RightUpLeg
		{
			OFFSET -6.797100 -2.508499 -1.318700
			CHANNELS 3 Xrotation Yrotation Zrotation
			JOINT RightLeg
			{
				OFFSET -0.082453 -29.241932 0.688000
				CHANNELS 3 Xrotation Yrotation Zrotation
				JOINT RightFoot
				{
					OFFSET 0.082453 -29.568058 -0.264600
					CHANNELS 3 Xrotation Yrotation Zrotation
					JOINT RightToeBase
					{
						OFFSET -3.115300 -8.682800 16.113400
						CHANNELS 3 Xrotation Yrotation Zrotation
						End Site
						{
							OFFSET 0.000000 18.567114 0.000000
						}
					}
				}
			}
			JOINT Right_ShortSleeve
			{
				OFFSET -0.265923 -10.480953 1.153800
				CHANNELS 3 Xrotation Yrotation Zrotation
				End Site
				{
					OFFSET -1.725766 19.823910 0.000000
				}
			}
		}
	}
	JOINT Spine
	{
		OFFSET 0.000000 13.368103 0.470500
		CHANNELS 3 Xrotation Yrotation Zrotation
		JOINT Spine1
		{
			OFFSET 0.147000 13.837402 0.538800
			CHANNELS 3 Xrotation Yrotation Zrotation
			JOINT Spine2
			{
				OFFSET 0.168000 16.242897 -1.435500
				CHANNELS 3 Xrotation Yrotation Zrotation
				JOINT Neck
				{
					OFFSET 0.217200 18.631500 -1.679100
					CHANNELS 3 Xrotation Yrotation Zrotation
					JOINT Head
					{
						OFFSET 0.000000 6.599396 1.385900
						CHANNELS 3 Xrotation Yrotation Zrotation
						JOINT Hat
						{
							OFFSET -0.532200 27.220596 -10.096100
							CHANNELS 3 Xrotation Yrotation Zrotation
							End Site
							{
								OFFSET 0.000000 22.029861 0.000000
							}
						}
						JOINT HairD
						{
							OFFSET -10.777400 17.437393 -1.325900
							CHANNELS 3 Xrotation Yrotation Zrotation
							JOINT HairD1
							{
								OFFSET -3.290299 -11.051193 1.062200
								CHANNELS 3 Xrotation Yrotation Zrotation
								End Site
								{
									OFFSET 0.000000 11.579437 0.000000
								}
							}
						}
						JOINT HairB
						{
							OFFSET -10.777400 17.437393 1.467900
							CHANNELS 3 Xrotation Yrotation Zrotation
							JOINT HairB1
							{
								OFFSET -1.561200 -12.956299 3.590200
								CHANNELS 3 Xrotation Yrotation Zrotation
								End Site
								{
									OFFSET 0.000000 13.534866 0.000000
								}
							}
						}
						JOINT HairA
						{
							OFFSET 9.713100 17.437393 1.467900
							CHANNELS 3 Xrotation Yrotation Zrotation
							JOINT HairA1
							{
								OFFSET 1.561200 -12.956299 3.590200
								CHANNELS 3 Xrotation Yrotation Zrotation
								End Site
								{
									OFFSET 0.000000 13.534866 0.000000
								}
							}
						}
						JOINT HairC
						{
							OFFSET 9.713100 17.437393 -1.325900
							CHANNELS 3 Xrotation Yrotation Zrotation
							JOINT HairC1
							{
								OFFSET 3.290300 -11.051193 1.062200
								CHANNELS 3 Xrotation Yrotation Zrotation
								End Site
								{
									OFFSET 0.000000 11.579437 0.000000
								}
							}
						}
					}
				}
				JOINT LeftShoulder
				{
					OFFSET 5.101800 15.108002 -2.763700
					CHANNELS 3 Xrotation Yrotation Zrotation
					JOINT LeftArm
					{
						OFFSET 9.825497 2.506317 -1.597400
						CHANNELS 3 Xrotation Yrotation Zrotation
						JOINT LeftForeArm
						{
							OFFSET 21.966244 0.000000 0.000000
							CHANNELS 3 Xrotation Yrotation Zrotation
							JOINT LeftHand
							{
								OFFSET 33.879036 0.000000 0.000000
								CHANNELS 3 Xrotation Yrotation Zrotation
								JOINT LeftHandThumb1
								{
									OFFSET 6.715286 -2.359680 3.363841
									CHANNELS 3 Xrotation Yrotation Zrotation
									JOINT LeftHandThumb2
									{
										OFFSET 2.507072 -1.447464 1.447461
										CHANNELS 3 Xrotation Yrotation Zrotation
										JOINT LeftHandThumb3
										{
											OFFSET 2.898338 -1.673355 1.673357
											CHANNELS 3 Xrotation Yrotation Zrotation
											End Site
											{
												OFFSET -0.295959 3.727692 -0.131651
											}
										}
									}
								}
								JOINT LeftHandIndex1
								{
									OFFSET 14.190811 -0.254547 3.840278
									CHANNELS 3 Xrotation Yrotation Zrotation
									JOINT LeftHandIndex2
									{
										OFFSET 3.551727 0.000000 -0.000000
										CHANNELS 3 Xrotation Yrotation Zrotation
										JOINT LeftHandIndex3
										{
											OFFSET 2.894196 0.000000 0.000000
											CHANNELS 3 Xrotation Yrotation Zrotation
											End Site
											{
												OFFSET -1.000603 2.690872 0.366626
											}
										}
									}
								}
								JOINT LeftHandMiddle1
								{
									OFFSET 13.776489 0.000000 0.000000
									CHANNELS 3 Xrotation Yrotation Zrotation
									JOINT LeftHandMiddle2
									{
										OFFSET 3.438232 0.000000 0.000000
										CHANNELS 3 Xrotation Yrotation Zrotation
										JOINT LeftHandMiddle3
										{
											OFFSET 3.691551 0.000000 0.000000
											CHANNELS 3 Xrotation Yrotation Zrotation
											End Site
											{
												OFFSET -1.082298 3.499527 0.457670
											}
										}
									}
								}
								JOINT LeftHandRing1
								{
									OFFSET 13.966164 -0.268127 -3.067488
									CHANNELS 3 Xrotation Yrotation Zrotation
									JOINT LeftHandRing2
									{
										OFFSET 3.162567 0.000000 0.000000
										CHANNELS 3 Xrotation Yrotation Zrotation
										JOINT LeftHandRing3
										{
											OFFSET 3.324348 0.000000 0.000000
											CHANNELS 3 Xrotation Yrotation Zrotation
											End Site
											{
												OFFSET -0.861900 3.184998 0.405154
											}
										}
									}
								}
								JOINT LeftHandPinky1
								{
									OFFSET 13.131393 -0.168503 -5.746925
									CHANNELS 3 Xrotation Yrotation Zrotation
									JOINT LeftHandPinky2
									{
										OFFSET 2.849182 0.000000 0.000000
										CHANNELS 3 Xrotation Yrotation Zrotation
										JOINT LeftHandPinky3
										{
											OFFSET 2.805038 0.000000 0.000000
											CHANNELS 3 Xrotation Yrotation Zrotation
											End Site
											{
												OFFSET -0.882500 2.642609 0.325652
											}
										}
									}
								}
							}
							JOINT Left_Sleeve
							{
								OFFSET 6.592125 -0.646545 0.805568
								CHANNELS 3 Xrotation Yrotation Zrotation
								End Site
								{
									OFFSET -0.000179 20.275787 -0.000000
								}
							}
						}
					}
				}
				JOINT RightShoulder
				{
					OFFSET -5.731700 15.108002 -2.763700
					CHANNELS 3 Xrotation Yrotation Zrotation
					JOINT RightArm
					{
						OFFSET -9.825497 2.506317 -1.597400
						CHANNELS 3 Xrotation Yrotation Zrotation
						JOINT RightForeArm
						{
							OFFSET -21.966242 0.000000 0.000000
							CHANNELS 3 Xrotation Yrotation Zrotation
							JOINT RightHand
							{
								OFFSET -33.879032 0.000000 0.000000
								CHANNELS 3 Xrotation Yrotation Zrotation
								JOINT RightHandThumb1
								{
									OFFSET -6.715286 -2.359680 3.363841
									CHANNELS 3 Xrotation Yrotation Zrotation
									JOINT RightHandThumb2
									{
										OFFSET -2.507072 -1.447464 1.447461
										CHANNELS 3 Xrotation Yrotation Zrotation
										JOINT RightHandThumb3
										{
											OFFSET -2.898338 -1.673355 1.673357
											CHANNELS 3 Xrotation Yrotation Zrotation
											End Site
											{
												OFFSET 0.295959 3.727692 -0.131651
											}
										}
									}
								}
								JOINT RightHandIndex1
								{
									OFFSET -14.190811 -0.254547 3.840278
									CHANNELS 3 Xrotation Yrotation Zrotation
									JOINT RightHandIndex2
									{
										OFFSET -3.551727 0.000000 -0.000000
										CHANNELS 3 Xrotation Yrotation Zrotation
										JOINT RightHandIndex3
										{
											OFFSET -2.894196 0.000000 0.000000
											CHANNELS 3 Xrotation Yrotation Zrotation
											End Site
											{
												OFFSET 1.000603 2.690872 0.366626
											}
										}
									}
								}
								JOINT RightHandMiddle1
								{
									OFFSET -13.776489 0.000000 0.000000
									CHANNELS 3 Xrotation Yrotation Zrotation
									JOINT RightHandMiddle2
									{
										OFFSET -3.438232 0.000000 0.000000
										CHANNELS 3 Xrotation Yrotation Zrotation
										JOINT RightHandMiddle3
										{
											OFFSET -3.691551 0.000000 0.000000
											CHANNELS 3 Xrotation Yrotation Zrotation
											End Site
											{
												OFFSET 1.082298 3.499527 0.457670
											}
										}
									}
								}
								JOINT RightHandRing1
								{
									OFFSET -13.966164 -0.268127 -3.067488
									CHANNELS 3 Xrotation Yrotation Zrotation
									JOINT RightHandRing2
									{
										OFFSET -3.162567 0.000000 0.000000
										CHANNELS 3 Xrotation Yrotation Zrotation
										JOINT RightHandRing3
										{
											OFFSET -3.324348 0.000000 0.000000
											CHANNELS 3 Xrotation Yrotation Zrotation
											End Site
											{
												OFFSET 0.861900 3.184998 0.405154
											}
										}
									}
								}
								JOINT RightHandPinky1
								{
									OFFSET -13.131393 -0.168503 -5.746925
									CHANNELS 3 Xrotation Yrotation Zrotation
									JOINT RightHandPinky2
									{
										OFFSET -2.849182 0.000000 0.000000
										CHANNELS 3 Xrotation Yrotation Zrotation
										JOINT RightHandPinky3
										{
											OFFSET -2.805038 0.000000 0.000000
											CHANNELS 3 Xrotation Yrotation Zrotation
											End Site
											{
												OFFSET 0.882500 2.642609 0.325652
											}
										}
									}
								}
							}
							JOINT Right_Sleeve
							{
								OFFSET -6.592125 -0.646545 0.805568
								CHANNELS 3 Xrotation Yrotation Zrotation
								End Site
								{
									OFFSET 0.000179 20.275787 -0.000000
								}
							}
						}
					}
				}
				JOINT Bind_Right_JacketString
				{
					OFFSET -3.534800 11.969597 7.200700
					CHANNELS 3 Xrotation Yrotation Zrotation
					JOINT Bind_Right_JacketString1
					{
						OFFSET -0.319900 -6.102600 2.794100
						CHANNELS 3 Xrotation Yrotation Zrotation
						End Site
						{
							OFFSET 0.000000 6.719452 0.000000
						}
					}
				}
				JOINT Bind_Left_JacketString
				{
					OFFSET 2.904800 11.969597 7.200700
					CHANNELS 3 Xrotation Yrotation Zrotation
					JOINT Bind_Left_JacketString1
					{
						OFFSET 0.364800 -5.904503 3.186800
						CHANNELS 3 Xrotation Yrotation Zrotation
						End Site
						{
							OFFSET 0.000000 6.719513 0.000000
						}
					}
				}
				JOINT HairE
				{
					OFFSET 5.915200 17.612701 -11.592200
					CHANNELS 3 Xrotation Yrotation Zrotation
					JOINT HairE1
					{
						OFFSET 0.289200 -7.171898 -1.284500
						CHANNELS 3 Xrotation Yrotation Zrotation
						End Site
						{
							OFFSET 0.000000 7.291756 0.000000
						}
					}
				}
				JOINT HairF
				{
					OFFSET -0.864800 17.612701 -11.592200
					CHANNELS 3 Xrotation Yrotation Zrotation
					JOINT HairF1
					{
						OFFSET 0.000000 -14.087097 -2.127501
						CHANNELS 3 Xrotation Yrotation Zrotation
						End Site
						{
							OFFSET 0.000000 14.246841 0.000000
						}
					}
				}
				JOINT HairG
				{
					OFFSET -8.087700 17.612701 -11.592200
					CHANNELS 3 Xrotation Yrotation Zrotation
					JOINT HairG1
					{
						OFFSET -0.293600 -6.081398 -0.910100
						CHANNELS 3 Xrotation Yrotation Zrotation
						End Site
						{
							OFFSET 0.000000 6.156120 0.000000
						}
					}
				}
			}
		}
	}
	JOINT Pouch
	{
		OFFSET 0.000000 4.394501 10.847300
		CHANNELS 3 Xrotation Yrotation Zrotation
		End Site
		{
			OFFSET 0.000000 21.880577 0.000000
		}
	}
	JOINT Bag
	{
		OFFSET -13.229000 4.813004 -0.593300
		CHANNELS 3 Xrotation Yrotation Zrotation
		End Site
		{
			OFFSET 0.000000 21.880577 0.000000
		}
	}
	JOINT OccupyGuyFacialAnim_Joint
	{
		OFFSET 1.000000 -70.206398 -1.655000
		CHANNELS 3 Xrotation Yrotation Zrotation
		End Site
		{
			OFFSET 0.000000 21.880577 0.000000
		}
	}
}
MOTION
Frames: 4
Frame Time: 0.016667
0.092770 70.448204 1.428810 -3.660859 3.319237 2.262361 0.000000 0.000000 0.000000 0.038835 8.533217 2.739181 16.131283 3.851754 0.707111 -11.894523 0.549886 -4.146859 0.000000 0.000001 -0.000000 0.000000 0.000000 -0.000000 -1.067039 -12.236012 -9.083254 17.921489 -4.864708 -1.291808 -12.383284 -2.097250 8.468416 0.000000 0.000001 0.000000 -0.000000 -0.000000 -0.000000 4.352483 -0.759568 -0.602132 1.013959 -0.170730 0.054478 1.013874 -0.177047 0.069539 0.942216 -0.544783 0.126543 -6.488561 -5.987210 -1.414550 0.000000 0.000000 -0.000000 0.000000 0.000000 -0.000000 0.000000 0.000000 -0.000000 0.000000 0.000000 -0.000000 0.000000 -0.000000 0.000000 0.000000 0.000000 -0.000000 0.000000 -0.000000 0.000000 0.000000 0.000000 -0.000000 0.000000 0.000000 -0.000000 0.674922 -2.078744 -16.856779 4.778422 -6.136923 -37.933853 0.000011 -66.118943 -0.000005 -4.833208 -7.576993 -60.543063 -7.220021 -16.942344 15.004583 8.348809 0.689818 4.880205 0.000001 0.000002 -0.000002 -0.978080 -1.241628 -15.183693 1.002374 3.278816 -33.989695 0.000001 -0.000001 -0.000002 0.805746 5.211341 -29.108832 1.066665 3.372079 -35.098163 0.000002 -0.000002 -0.000001 6.496552 12.626954 -37.570852 1.949518 4.363753 -48.129102 0.000001 -0.000000 -0.000001 9.161875 25.681031 -47.169867 0.954751 3.207195 -33.147830 -0.000000 -0.000001 0.000003 0.000000 0.000000 0.000001 0.088522 8.205040 21.087106 -3.899877 6.709556 55.252576 -0.000004 9.850085 0.000013 33.602400 9.190949 0.661904 9.076652 11.156477 -7.011593 22.190723 -26.308854 10.011987 -0.000002 0.000001 0.000001 3.041042 7.562619 51.714634 1.573268 -3.491476 48.501904 -0.000002 0.000004 0.000003 -3.185423 -4.004888 67.076822 1.304828 -3.234633 43.928310 0.000002 0.000000 -0.000001 -4.626543 -1.781842 57.138269 2.278837 -4.005244 59.262772 -0.000001 -0.000001 -0.000000 -7.034699 -9.338191 44.934186 1.908690 -3.761121 53.801629 -0.000000 -0.000000 -0.000001 -0.000001 -0.000001 0.000000 -0.000000 -0.000000 -0.000000 0.000000 0.000000 -0.000000 -0.000000 -0.000000 -0.000000 -0.000000 -0.000000 -0.000000 -0.000000 -0.000000 -0.000000 0.000000 0.000000 -0.000000 -0.000000 -0.000000 -0.000000 -0.000000 -0.000000 -0.000000 -0.000000 -0.000000 -0.000000 0.000000 0.000000 -0.000000 0.000000 0.000000 0.000000 0.000000 0.000000 0.000000 0.000000 0.000000 0.000000 
0.099160 70.448921 1.442172 -3.661171 3.402496 2.288645 -0.000000 -0.000000 0.000000 0.027326 8.547870 2.732867 16.154658 3.792375 0.672167 -11.906866 0.549861 -4.082753 0.000000 0.000001 0.000000 -0.000000 -0.000000 0.000000 -1.031856 -12.236709 -9.098776 17.906982 -4.949462 -1.291800 -12.395615 -2.105057 8.491829 0.000000 -0.000000 0.000000 -0.000000 0.000001 -0.000000 4.297227 -0.724666 -0.617557 1.003490 -0.162740 0.054478 1.003402 -0.169834 0.069539 0.967347 -0.361658 0.089158 -6.296966 -5.810301 -1.351242 -0.000000 0.000000 0.000000 -0.000000 0.000000 0.000000 -0.000000 0.000000 0.000000 -0.000000 0.000000 0.000000 0.000000 -0.000000 -0.000000 -0.000000 0.000000 0.000000 0.000000 -0.000000 -0.000000 -0.000000 0.000000 0.000000 -0.000000 0.000000 0.000000 0.668922 -2.098532 -16.856999 4.777336 -6.116301 -37.949357 0.000024 -66.118970 0.000027 -4.804794 -7.604658 -60.565350 -7.220021 -16.942341 15.004587 8.348852 0.690235 4.880272 0.000002 0.000002 0.000001 -0.984000 -1.230240 -15.277776 0.998167 3.272614 -33.916298 0.000002 -0.000002 -0.000004 0.808630 5.216541 -29.166964 1.066677 3.372084 -35.098150 0.000001 -0.000000 0.000002 6.505275 12.626476 -37.619589 1.947877 4.362286 -48.107372 0.000004 0.000000 -0.000002 9.177739 25.678965 -47.209916 0.954760 3.207202 -33.147813 -0.000001 -0.000001 -0.000001 0.000002 -0.000001 0.000001 0.189312 8.114525 20.696774 -3.948090 6.617985 55.456963 -0.000012 9.661274 0.000041 33.524703 9.281775 1.219424 8.533741 11.109479 -7.539719 22.252732 -26.276122 10.224544 0.000000 0.000000 0.000000 3.035215 7.424102 51.008887 1.532231 -3.454803 47.824616 -0.000001 0.000006 0.000003 -3.314718 -3.863951 66.407074 1.290200 -3.219414 43.668592 0.000001 -0.000004 0.000000 -4.917043 -1.736416 57.961696 2.213084 -3.965510 58.316941 -0.000000 -0.000002 0.000000 -7.357673 -8.917712 46.621034 1.809466 -3.686593 52.273617 0.000002 0.000002 -0.000001 0.000000 -0.000001 -0.000000 0.000000 0.000000 -0.000000 0.000000 0.000000 -0.000000 0.000000 0.000000 -0.000000 0.000000 0.000000 -0.000000 0.000000 0.000000 -0.000000 0.000000 0.000000 -0.000000 0.000000 0.000000 -0.000000 0.000000 0.000000 -0.000000 0.000000 0.000000 -0.000000 0.000000 0.000000 -0.000000 -0.000000 -0.000000 0.000000 -0.000000 -0.000000 0.000000 -0.000000 -0.000000 0.000000 
0.105947 70.449905 1.456334 -3.666655 3.496675 2.318533 0.000000 -0.000000 0.000000 0.042227 8.555198 2.716392 16.134174 3.727696 0.646476 -11.897264 0.548915 -4.043041 0.000000 0.000001 0.000000 0.000000 -0.000000 -0.000000 -0.987681 -12.237442 -9.115588 17.891525 -5.041645 -1.291779 -12.409454 -2.117615 8.517237 0.000000 0.000001 -0.000000 -0.000000 -0.000000 -0.000000 4.243295 -0.692654 -0.629579 0.993090 -0.154235 0.054478 0.993004 -0.161422 0.069539 0.993620 -0.171603 0.051405 -6.089673 -5.592142 -1.285595 -0.000000 -0.000000 0.000000 -0.000000 -0.000000 0.000000 -0.000000 -0.000000 0.000000 -0.000000 -0.000000 0.000000 0.000000 0.000000 0.000000 -0.000000 -0.000000 0.000000 0.000000 0.000000 0.000000 -0.000000 -0.000000 0.000000 -0.000000 -0.000000 0.000000 0.669284 -2.097339 -16.856984 4.776130 -6.115298 -37.967724 0.000017 -66.105282 0.000003 -4.795297 -7.620665 -60.578607 -7.220023 -16.942341 15.004594 8.343785 0.679837 4.884438 0.000000 -0.000000 -0.000001 -0.987271 -1.223899 -15.330085 0.996329 3.269877 -33.884241 0.000000 -0.000000 -0.000004 0.810376 5.219616 -29.201572 1.066670 3.372074 -35.098156 0.000002 -0.000002 -0.000001 6.508809 12.626278 -37.639414 1.946209 4.360803 -48.085645 0.000002 0.000000 -0.000001 9.181751 25.678479 -47.219977 0.954724 3.207177 -33.147813 -0.000003 0.000000 -0.000001 0.000004 -0.000001 0.000000 0.288256 8.054239 20.313278 -4.008384 6.518857 55.627144 -0.000001 9.463821 -0.000012 33.489555 9.471049 1.838416 7.972954 11.044948 -8.116755 22.324034 -26.238136 10.469544 -0.000002 -0.000002 0.000000 3.024035 7.283617 50.293589 1.491117 -3.417187 47.138462 -0.000000 0.000001 0.000002 -3.452774 -3.715155 65.737040 1.275066 -3.203515 43.398561 0.000001 0.000000 -0.000001 -5.217656 -1.713512 58.887077 2.144040 -3.922171 57.312971 -0.000003 -0.000002 0.000000 -7.711640 -8.515094 48.478514 1.703783 -3.602542 50.611524 -0.000000 0.000003 0.000001 0.000001 -0.000001 0.000000 -0.000000 -0.000000 -0.000000 -0.000000 -0.000000 -0.000000 -0.000000 -0.000000 -0.000000 -0.000000 -0.000000 -0.000000 -0.000000 -0.000000 -0.000000 -0.000000 -0.000000 -0.000000 -0.000000 -0.000000 -0.000000 -0.000000 -0.000000 -0.000000 -0.000000 -0.000000 -0.000000 -0.000000 -0.000000 -0.000000 0.000000 -0.000000 0.000000 0.000000 -0.000000 0.000000 0.000000 -0.000000 0.000000 
0.116195 70.451378 1.471051 -3.673651 3.600969 2.357745 -0.000000 0.000000 0.000000 0.070076 8.555552 2.682529 16.094041 3.664400 0.627734 -11.878805 0.547695 -4.004737 0.000000 -0.000000 -0.000000 0.000000 -0.000000 -0.000000 -0.940946 -12.238583 -9.143184 17.875754 -5.141315 -1.291755 -12.423578 -2.134321 8.547715 0.000000 -0.000000 0.000000 0.000000 -0.000000 -0.000000 4.190134 -0.661701 -0.638690 0.983113 -0.144933 0.054478 0.983032 -0.152244 0.066660 1.021000 0.026480 0.013595 -5.859409 -5.331690 -1.206529 0.000000 0.000000 0.000000 0.000000 0.000000 0.000000 0.000000 0.000000 0.000000 0.000000 0.000000 0.000000 0.000000 -0.000000 0.000000 0.000000 0.000000 0.000000 0.000000 -0.000000 0.000000 0.000000 0.000000 0.000000 0.000000 0.000000 0.000000 0.672029 -2.087341 -16.865549 4.773025 -6.120773 -37.983450 -0.000015 -66.086172 -0.000021 -4.796961 -7.633366 -60.590499 -7.220021 -16.942346 15.004587 8.332867 0.653607 4.892524 0.000002 -0.000001 0.000001 -0.987900 -1.222729 -15.339797 0.996456 3.270069 -33.886389 -0.000001 -0.000000 -0.000000 0.810716 5.220245 -29.208669 1.066685 3.372075 -35.098156 0.000000 0.000001 -0.000001 6.508691 12.626272 -37.638837 1.945097 4.359799 -48.070967 0.000001 0.000001 -0.000001 9.177518 25.679018 -47.209345 0.954744 3.207182 -33.147813 -0.000000 0.000001 0.000003 0.000000 0.000004 -0.000001 0.391140 7.989679 19.911497 -4.059856 6.438539 55.791577 0.000001 9.308321 -0.000012 33.459761 9.705524 2.456253 7.393727 10.964013 -8.735721 22.404767 -26.196673 10.745441 0.000002 0.000000 0.000003 3.009646 7.138834 49.568698 1.449924 -3.378551 46.443446 -0.000002 -0.000001 0.000004 -3.597550 -3.558822 65.066131 1.259527 -3.187024 43.119602 0.000000 -0.000002 -0.000001 -5.523648 -1.714892 59.897897 2.072296 -3.875290 56.257861 -0.000003 0.000000 -0.000001 -8.097102 -8.141716 50.479903 1.593508 -3.509258 48.833271 0.000001 0.000005 -0.000002 0.000001 0.000001 0.000001 0.000000 -0.000000 0.000000 0.000000 -0.000000 0.000000 0.000000 -0.000000 0.000000 0.000000 -0.000000 0.000000 0.000000 -0.000000 0.000000 0.000000 -0.000000 0.000000 0.000000 -0.000000 0.000000 0.000000 -0.000000 0.000000 0.000000 -0.000000 0.000000 0.000000 -0.000000 0.000000 -0.000000 0.000000 0.000000 -0.000000 0.000000 0.000000 -0.000000 0.000000 0.000000 
